<?xml version="1.0" encoding="UTF-8"?>
<svg version="1.1" xmlns="http://www.w3.org/2000/svg" width="64" height="64">
<path d="M0 0 C1.34160439 -0.00956978 1.34160439 -0.00956978 2.71031189 -0.01933289 C3.68319656 -0.02044571 4.65608124 -0.02155853 5.65844727 -0.02270508 C6.65111099 -0.02603348 7.64377472 -0.02936188 8.66651917 -0.03279114 C10.77067602 -0.03786473 12.87484094 -0.04019933 14.97900391 -0.04003906 C18.20757234 -0.04222463 21.43579878 -0.06037332 24.66430664 -0.0793457 C26.70401901 -0.08227965 28.74373301 -0.08426444 30.78344727 -0.08520508 C32.23973793 -0.09598335 32.23973793 -0.09598335 33.72544861 -0.10697937 C34.62300369 -0.10390274 35.52055878 -0.10082611 36.4453125 -0.09765625 C37.23727524 -0.09908127 38.02923798 -0.10050629 38.84519958 -0.10197449 C40.78735352 0.14526367 40.78735352 0.14526367 42.78735352 2.14526367 C42.78735352 3.13526367 42.78735352 4.12526367 42.78735352 5.14526367 C44.10735352 5.47526367 45.42735352 5.80526367 46.78735352 6.14526367 C46.78735352 13.73526367 46.78735352 21.32526367 46.78735352 29.14526367 C45.46735352 29.47526367 44.14735352 29.80526367 42.78735352 30.14526367 C42.80306396 31.25768433 42.80306396 31.25768433 42.8190918 32.39257812 C42.86062548 35.7476056 42.8866714 39.10257901 42.91235352 42.45776367 C42.92911133 43.62500977 42.94586914 44.79225586 42.96313477 45.99487305 C42.97280273 47.67226562 42.97280273 47.67226562 42.98266602 49.38354492 C42.99837646 50.93102417 42.99837646 50.93102417 43.0144043 52.50976562 C42.78735352 55.14526367 42.78735352 55.14526367 40.78735352 58.14526367 C37.98999023 58.48583984 37.98999023 58.48583984 34.46704102 58.43823242 C33.21020508 58.42856445 31.95336914 58.41889648 30.65844727 58.40893555 C29.33973633 58.38379883 28.02102539 58.35866211 26.66235352 58.33276367 C25.32252448 58.3177185 23.98267948 58.3040298 22.64282227 58.29174805 C19.35726509 58.25629239 16.0725077 58.20687216 12.78735352 58.14526367 C12.78735352 60.12526367 12.78735352 62.10526367 12.78735352 64.14526367 C8.82735352 64.14526367 4.86735352 64.14526367 0.78735352 64.14526367 C0.78735352 62.16526367 0.78735352 60.18526367 0.78735352 58.14526367 C-0.01702148 58.00088867 -0.82139648 57.85651367 -1.65014648 57.70776367 C-4.21264648 57.14526367 -4.21264648 57.14526367 -5.21264648 56.14526367 C-5.31146242 54.43207421 -5.34063618 52.71481564 -5.34204102 50.9987793 C-5.34676926 49.35202209 -5.34676926 49.35202209 -5.35159302 47.67199707 C-5.34956879 46.47723755 -5.34754456 45.28247803 -5.34545898 44.05151367 C-5.34641571 42.83451782 -5.34737244 41.61752197 -5.34835815 40.36364746 C-5.3490402 37.78450468 -5.3471842 35.2053602 -5.34301758 32.6262207 C-5.33766971 28.66247732 -5.34296178 24.69884725 -5.34936523 20.73510742 C-5.34870446 18.23640925 -5.3474233 15.73771116 -5.34545898 13.23901367 C-5.34748322 12.04425415 -5.34950745 10.84949463 -5.35159302 9.61853027 C-5.34844086 8.52069214 -5.3452887 7.422854 -5.34204102 6.29174805 C-5.34124542 5.31991577 -5.34044983 4.3480835 -5.33963013 3.34680176 C-5.11636022 -0.52406856 -3.43631056 0.01655595 0 0 Z " fill="#67D1A0" transform="translate(11.212646484375,-0.145263671875)"/>
<path d="M0 0 C1.34160439 -0.00956978 1.34160439 -0.00956978 2.71031189 -0.01933289 C3.68319656 -0.02044571 4.65608124 -0.02155853 5.65844727 -0.02270508 C6.65111099 -0.02603348 7.64377472 -0.02936188 8.66651917 -0.03279114 C10.77067602 -0.03786473 12.87484094 -0.04019933 14.97900391 -0.04003906 C18.20757234 -0.04222463 21.43579878 -0.06037332 24.66430664 -0.0793457 C26.70401901 -0.08227965 28.74373301 -0.08426444 30.78344727 -0.08520508 C32.23973793 -0.09598335 32.23973793 -0.09598335 33.72544861 -0.10697937 C34.62300369 -0.10390274 35.52055878 -0.10082611 36.4453125 -0.09765625 C37.23727524 -0.09908127 38.02923798 -0.10050629 38.84519958 -0.10197449 C40.78735352 0.14526367 40.78735352 0.14526367 42.78735352 2.14526367 C42.78735352 3.13526367 42.78735352 4.12526367 42.78735352 5.14526367 C44.10735352 5.47526367 45.42735352 5.80526367 46.78735352 6.14526367 C46.78735352 13.73526367 46.78735352 21.32526367 46.78735352 29.14526367 C45.46735352 29.47526367 44.14735352 29.80526367 42.78735352 30.14526367 C42.80306396 31.25768433 42.80306396 31.25768433 42.8190918 32.39257812 C42.86062548 35.7476056 42.8866714 39.10257901 42.91235352 42.45776367 C42.92911133 43.62500977 42.94586914 44.79225586 42.96313477 45.99487305 C42.97280273 47.67226562 42.97280273 47.67226562 42.98266602 49.38354492 C42.99837646 50.93102417 42.99837646 50.93102417 43.0144043 52.50976562 C42.78735352 55.14526367 42.78735352 55.14526367 40.78735352 58.14526367 C37.98999023 58.48583984 37.98999023 58.48583984 34.46704102 58.43823242 C33.21020508 58.42856445 31.95336914 58.41889648 30.65844727 58.40893555 C29.33973633 58.38379883 28.02102539 58.35866211 26.66235352 58.33276367 C25.32252448 58.3177185 23.98267948 58.3040298 22.64282227 58.29174805 C19.35726509 58.25629239 16.0725077 58.20687216 12.78735352 58.14526367 C12.78735352 60.12526367 12.78735352 62.10526367 12.78735352 64.14526367 C8.82735352 64.14526367 4.86735352 64.14526367 0.78735352 64.14526367 C0.78735352 62.16526367 0.78735352 60.18526367 0.78735352 58.14526367 C-0.01702148 58.00088867 -0.82139648 57.85651367 -1.65014648 57.70776367 C-4.21264648 57.14526367 -4.21264648 57.14526367 -5.21264648 56.14526367 C-5.31146242 54.43207421 -5.34063618 52.71481564 -5.34204102 50.9987793 C-5.34676926 49.35202209 -5.34676926 49.35202209 -5.35159302 47.67199707 C-5.34956879 46.47723755 -5.34754456 45.28247803 -5.34545898 44.05151367 C-5.34641571 42.83451782 -5.34737244 41.61752197 -5.34835815 40.36364746 C-5.3490402 37.78450468 -5.3471842 35.2053602 -5.34301758 32.6262207 C-5.33766971 28.66247732 -5.34296178 24.69884725 -5.34936523 20.73510742 C-5.34870446 18.23640925 -5.3474233 15.73771116 -5.34545898 13.23901367 C-5.34748322 12.04425415 -5.34950745 10.84949463 -5.35159302 9.61853027 C-5.34844086 8.52069214 -5.3452887 7.422854 -5.34204102 6.29174805 C-5.34124542 5.31991577 -5.34044983 4.3480835 -5.33963013 3.34680176 C-5.11636022 -0.52406856 -3.43631056 0.01655595 0 0 Z M2.78735352 2.14526367 C2.78735352 13.69526367 2.78735352 25.24526367 2.78735352 37.14526367 C8.39735352 37.14526367 14.00735352 37.14526367 19.78735352 37.14526367 C19.78735352 37.80526367 19.78735352 38.46526367 19.78735352 39.14526367 C14.17735352 39.14526367 8.56735352 39.14526367 2.78735352 39.14526367 C2.78735352 41.45526367 2.78735352 43.76526367 2.78735352 46.14526367 C14.99735352 46.14526367 27.20735352 46.14526367 39.78735352 46.14526367 C39.78735352 43.83526367 39.78735352 41.52526367 39.78735352 39.14526367 C34.17735352 39.14526367 28.56735352 39.14526367 22.78735352 39.14526367 C22.78735352 38.48526367 22.78735352 37.82526367 22.78735352 37.14526367 C28.39735352 37.14526367 34.00735352 37.14526367 39.78735352 37.14526367 C39.78735352 25.59526367 39.78735352 14.04526367 39.78735352 2.14526367 C27.57735352 2.14526367 15.36735352 2.14526367 2.78735352 2.14526367 Z " fill="#151211" transform="translate(11.212646484375,-0.145263671875)"/>
<path d="M0 0 C0.804375 0.12375 1.60875 0.2475 2.4375 0.375 C5.33506954 1.08172428 6.36947145 1.51129852 8 4 C8.25 7.125 8.25 7.125 8 10 C7.67 10.33 7.34 10.66 7 11 C6.79224439 12.66204487 6.63281745 14.33029491 6.5 16 C6.11111111 20.88888889 6.11111111 20.88888889 5 22 C3.29227642 22.08713831 1.58101351 22.10700007 -0.12890625 22.09765625 C-1.68061523 22.09282227 -1.68061523 22.09282227 -3.26367188 22.08789062 C-4.35228516 22.07951172 -5.44089844 22.07113281 -6.5625 22.0625 C-8.2012207 22.05573242 -8.2012207 22.05573242 -9.87304688 22.04882812 C-12.58208495 22.03699826 -15.29101599 22.02051543 -18 22 C-18.04898437 21.31292969 -18.09796875 20.62585938 -18.1484375 19.91796875 C-18.22320313 19.01691406 -18.29796875 18.11585937 -18.375 17.1875 C-18.44460937 16.29417969 -18.51421875 15.40085937 -18.5859375 14.48046875 C-18.86645036 11.75601501 -18.86645036 11.75601501 -21 9 C-21.4375 6.5625 -21.4375 6.5625 -21 4 C-15.46870198 -1.8665282 -7.3390503 -3.66952515 0 0 Z " fill="#15211B" transform="translate(39,9)"/>
<path d="M0 0 C1.32 0.66 2.64 1.32 4 2 C4 2.99 4 3.98 4 5 C5.32 5.33 6.64 5.66 8 6 C8 13.59 8 21.18 8 29 C6.68 29.33 5.36 29.66 4 30 C4.01571045 31.11242065 4.01571045 31.11242065 4.03173828 32.24731445 C4.07327196 35.60234193 4.09931789 38.95731533 4.125 42.3125 C4.14175781 43.47974609 4.15851562 44.64699219 4.17578125 45.84960938 C4.18544922 47.52700195 4.18544922 47.52700195 4.1953125 49.23828125 C4.21102295 50.7857605 4.21102295 50.7857605 4.22705078 52.36450195 C4 55 4 55 2 58 C-0.79736328 58.34057617 -0.79736328 58.34057617 -4.3203125 58.29296875 C-5.57714844 58.28330078 -6.83398438 58.27363281 -8.12890625 58.26367188 C-9.44761719 58.23853516 -10.76632813 58.21339844 -12.125 58.1875 C-13.46482903 58.17245483 -14.80467404 58.15876613 -16.14453125 58.14648438 C-19.43008842 58.11102872 -22.71484582 58.06160849 -26 58 C-26 59.98 -26 61.96 -26 64 C-29.46941546 63.54177532 -32.67395049 63.10868317 -36 62 C-36 60.35 -36 58.7 -36 57 C-31.30450557 56.26329764 -26.72214776 55.83135571 -21.97265625 55.68359375 C-20.68681641 55.64169922 -19.40097656 55.59980469 -18.07617188 55.55664062 C-16.73828375 55.516843 -15.40039309 55.47713049 -14.0625 55.4375 C-12.69725438 55.39423346 -11.33201982 55.35061679 -9.96679688 55.30664062 C-6.64462348 55.20098847 -3.32238054 55.09888605 0 55 C0 52.69 0 50.38 0 48 C-11.88 47.67 -23.76 47.34 -36 47 C-36 46.67 -36 46.34 -36 46 C-23.79 46 -11.58 46 1 46 C1 43.69 1 41.38 1 39 C-4.61 39 -10.22 39 -16 39 C-16 38.34 -16 37.68 -16 37 C-10.39 37 -4.78 37 1 37 C0.67 24.79 0.34 12.58 0 0 Z " fill="#161B1A" transform="translate(50,0)"/>
<path d="M0 0 C12.21 0 24.42 0 37 0 C37 2.31 37 4.62 37 7 C36 8 36 8 32.58178711 8.11352539 C31.06363012 8.11336628 29.54546771 8.10767226 28.02734375 8.09765625 C27.22970108 8.0962413 26.43205841 8.09482635 25.61024475 8.09336853 C23.05262565 8.08775316 20.49509282 8.07519812 17.9375 8.0625 C16.20768355 8.05748698 14.47786574 8.05292373 12.74804688 8.04882812 C8.49866447 8.03777875 4.24934688 8.02050386 0 8 C0 5.36 0 2.72 0 0 Z " fill="#60BE91" transform="translate(14,48)"/>
<path d="M0 0 C2.375 0.6875 2.375 0.6875 3.375 1.6875 C5.0765625 1.9040625 5.0765625 1.9040625 6.8125 2.125 C10.375 2.6875 10.375 2.6875 12.375 4.6875 C12 7.3125 12 7.3125 11.375 9.6875 C10.715 9.6875 10.055 9.6875 9.375 9.6875 C9.375 11.3375 9.375 12.9875 9.375 14.6875 C7.725 14.6875 6.075 14.6875 4.375 14.6875 C4.705 13.3675 5.035 12.0475 5.375 10.6875 C4.715 10.6875 4.055 10.6875 3.375 10.6875 C3.045 12.0075 2.715 13.3275 2.375 14.6875 C1.715 14.6875 1.055 14.6875 0.375 14.6875 C0.375 13.0375 0.375 11.3875 0.375 9.6875 C-0.285 9.6875 -0.945 9.6875 -1.625 9.6875 C-1.625 11.3375 -1.625 12.9875 -1.625 14.6875 C-2.615 14.6875 -3.605 14.6875 -4.625 14.6875 C-4.955 13.6975 -5.285 12.7075 -5.625 11.6875 C-6.285 11.3575 -6.945 11.0275 -7.625 10.6875 C-7.295 12.0075 -6.965 13.3275 -6.625 14.6875 C-7.945 14.6875 -9.265 14.6875 -10.625 14.6875 C-10.934375 13.883125 -11.24375 13.07875 -11.5625 12.25 C-12.38835345 9.79669595 -12.38835345 9.79669595 -13.625 8.6875 C-13.875 6.25 -13.875 6.25 -13.625 3.6875 C-10.29692599 1.46878399 -9.42009218 1.6875 -5.625 1.6875 C-2.625 -0.3125 -2.625 -0.3125 0 0 Z " fill="#E2EEF7" transform="translate(33.625,9.3125)"/>
<path d="M0 0 C0 2.31 0 4.62 0 7 C-12.21 7 -24.42 7 -37 7 C-37 4.69 -37 2.38 -37 0 C-24.55968889 -1.04743552 -12.45120028 -0.83694728 0 0 Z " fill="#E4F0F9" transform="translate(51,39)"/>
<path d="M0 0 C0.99 0 1.98 0 3 0 C3 17.49 3 34.98 3 53 C1.68 53 0.36 53 -1 53 C-1.738615 39.45705017 -2.15614779 25.9964963 -1.625 12.4375 C-1.58189697 11.30844238 -1.53879395 10.17938477 -1.49438477 9.01611328 C-1.13655674 1.13655674 -1.13655674 1.13655674 0 0 Z " fill="#E96E7D" transform="translate(9,2)"/>
<path d="M0 0 C1.98 0.99 1.98 0.99 4 2 C4 2.99 4 3.98 4 5 C5.32 5.33 6.64 5.66 8 6 C8 13.59 8 21.18 8 29 C6.68 29.33 5.36 29.66 4 30 C3 29 3 29 2.90234375 25.40234375 C2.90808728 23.91402745 2.92110109 22.42573704 2.9375 20.9375 C2.958125 18.318125 2.97875 15.69875 3 13 C2.67 20.92 2.34 28.84 2 37 C1.67 37 1.34 37 1 37 C0.67 24.79 0.34 12.58 0 0 Z " fill="#081612" transform="translate(50,0)"/>
<path d="M0 0 C0.99 0.495 0.99 0.495 2 1 C2.33 8.59 2.66 16.18 3 24 C4.32 24.33 5.64 24.66 7 25 C7 19.06 7 13.12 7 7 C12.61 7 18.22 7 24 7 C24 7.33 24 7.66 24 8 C18.72 8 13.44 8 8 8 C8 10.64 8 13.28 8 16 C19.88 16 31.76 16 44 16 C44 16.33 44 16.66 44 17 C32.12 17 20.24 17 8 17 C8 19.64 8 22.28 8 25 C10.31 25 12.62 25 15 25 C15 25.33 15 25.66 15 26 C12.69 26 10.38 26 8 26 C8 27.65 8 29.3 8 31 C9.32 30.67 10.64 30.34 12 30 C11.67 30.99 11.34 31.98 11 33 C9.35 33 7.7 33 6 33 C6 31.02 6 29.04 6 27 C5.195625 26.855625 4.39125 26.71125 3.5625 26.5625 C1 26 1 26 0 25 C-0.08737645 23.14630389 -0.10698153 21.28932459 -0.09765625 19.43359375 C-0.09443359 18.30888672 -0.09121094 17.18417969 -0.08789062 16.02539062 C-0.07951172 14.84138672 -0.07113281 13.65738281 -0.0625 12.4375 C-0.05798828 11.24962891 -0.05347656 10.06175781 -0.04882812 8.83789062 C-0.03699675 5.89187774 -0.02051287 2.94596319 0 0 Z " fill="#000000" transform="translate(6,31)"/>
<path d="M0 0 C0.33 1.32 0.66 2.64 1 4 C2.32 4 3.64 4 5 4 C4.67 2.68 4.34 1.36 4 0 C4.99 0.33 5.98 0.66 7 1 C7 2.32 7 3.64 7 5 C13.93 5.495 13.93 5.495 21 6 C21 6.99 21 7.98 21 9 C14.07 9 7.14 9 0 9 C0 6.03 0 3.06 0 0 Z " fill="#9F505A" transform="translate(22,20)"/>
<path d="M0 0 C1.2065625 0.0309375 1.2065625 0.0309375 2.4375 0.0625 C2.4375 0.7225 2.4375 1.3825 2.4375 2.0625 C1.4475 2.3925 0.4575 2.7225 -0.5625 3.0625 C-0.8925 11.6425 -1.2225 20.2225 -1.5625 29.0625 C-2.2225 29.0625 -2.8825 29.0625 -3.5625 29.0625 C-3.58715881 25.09319011 -3.60534023 21.12390966 -3.61743164 17.15454102 C-3.62247057 15.80329614 -3.62930177 14.45205674 -3.63793945 13.10083008 C-3.65002419 11.16229566 -3.65519828 9.223722 -3.66015625 7.28515625 C-3.66539307 6.11734619 -3.67062988 4.94953613 -3.67602539 3.74633789 C-3.52118943 0.08588267 -3.52118943 0.08588267 0 0 Z " fill="#040102" transform="translate(9.5625,-0.0625)"/>
<path d="M0 0 C1.32 0 2.64 0 4 0 C4 0.99 4 1.98 4 3 C1.125 3.125 1.125 3.125 -2 3 C-2.66 2.34 -3.32 1.68 -4 1 C-7.18819752 1.33916995 -9.95781049 1.98593683 -13 3 C-15.6875 2.5625 -15.6875 2.5625 -18 2 C-13.22863999 -2.77136001 -5.87401997 -2.93700999 0 0 Z " fill="#273931" transform="translate(39,9)"/>
<path d="M0 0 C2.64 0 5.28 0 8 0 C8 1.65 8 3.3 8 5 C5.36 5 2.72 5 0 5 C0 3.35 0 1.7 0 0 Z " fill="#B79901" transform="translate(14,57)"/>
<path d="M0 0 C0.66 0 1.32 0 2 0 C1.67 1.32 1.34 2.64 1 4 C2.65 4 4.3 4 6 4 C6 4.66 6 5.32 6 6 C3.36 6 0.72 6 -2 6 C-1.34 4.02 -0.68 2.04 0 0 Z " fill="#141213" transform="translate(37,20)"/>
<path d="M0 0 C1.485 0.99 1.485 0.99 3 2 C2.67 3.65 2.34 5.3 2 7 C1.34 7 0.68 7 0 7 C0 8.65 0 10.3 0 12 C-0.33 12 -0.66 12 -1 12 C-0.67 8.04 -0.34 4.08 0 0 Z " fill="#BFD0DF" transform="translate(43,12)"/>
<path d="M0 0 C0.66 0.33 1.32 0.66 2 1 C1.67 1.33 1.34 1.66 1 2 C0.95615553 3.66608987 0.9603287 5.33380554 1 7 C1 7.99 1 8.98 1 10 C-1.28773145 8.18887927 -1.95209822 7.39279457 -2.3125 4.4375 C-2 2 -2 2 0 0 Z " fill="#0F1714" transform="translate(20,11)"/>
<path d="M0 0 C0.99 0 1.98 0 3 0 C3 1.98 3 3.96 3 6 C2.01 6 1.02 6 0 6 C0 4.02 0 2.04 0 0 Z " fill="#4FB1CB" transform="translate(53,22)"/>
<path d="M0 0 C0.99 0 1.98 0 3 0 C3 1.98 3 3.96 3 6 C2.01 6 1.02 6 0 6 C0 4.02 0 2.04 0 0 Z " fill="#C45D69" transform="translate(53,15)"/>
<path d="M0 0 C-0.99 1.485 -0.99 1.485 -2 3 C-5.125 3.1875 -5.125 3.1875 -8 3 C-8.33 2.34 -8.66 1.68 -9 1 C-6.04335481 -0.4783226 -3.25770263 -0.06032783 0 0 Z " fill="#1A2C23" transform="translate(30,9)"/>
<path d="M0 0 C0.99 0.33 1.98 0.66 3 1 C3 2.65 3 4.3 3 6 C2.01 6 1.02 6 0 6 C0 4.02 0 2.04 0 0 Z " fill="#D8B401" transform="translate(53,7)"/>
</svg>
